<svg version="1.0" xmlns="http://www.w3.org/2000/svg"
 width="256.000000pt" height="251.000000pt" viewBox="0 0 256.000000 251.000000"
 preserveAspectRatio="xMidYMid meet">

<g transform="translate(0.000000,251.000000) scale(0.100000,-0.100000)"
fill="#f1cdb3" stroke="none">
<path d="M815 2491 c-87 -39 -170 -168 -200 -307 -19 -89 -19 -145 0 -219 34
-128 105 -213 204 -242 193 -56 369 163 332 413 -27 182 -123 334 -230 364
-49 13 -60 12 -106 -9z"/>
<path d="M1631 2498 c-49 -14 -133 -102 -169 -178 -17 -36 -38 -103 -48 -150
-14 -72 -15 -96 -5 -160 22 -146 102 -255 209 -286 210 -61 386 182 328 455
-31 144 -113 272 -201 312 -44 21 -64 22 -114 7z"/>
<path d="M130 1903 c-33 -12 -81 -70 -99 -119 -72 -192 9 -437 171 -518 92
-46 203 -31 265 36 28 30 59 101 68 154 30 190 -172 456 -345 453 -25 0 -52
-3 -60 -6z"/>
<path d="M2271 1885 c-146 -69 -269 -284 -246 -429 9 -53 40 -124 68 -154 87
-93 254 -80 351 28 134 149 150 424 31 540 -30 29 -43 34 -92 37 -46 3 -69 -1
-112 -22z"/>
<path d="M1182 1429 c-305 -46 -656 -346 -837 -714 -98 -202 -110 -358 -39
-512 65 -138 233 -221 364 -180 25 7 80 37 123 65 118 77 168 80 273 15 210
-129 218 -129 428 0 105 65 155 62 273 -15 43 -28 98 -58 123 -65 131 -41 299
42 364 180 71 154 59 310 -39 512 -138 281 -409 557 -644 656 -133 56 -268 76
-389 58z m-31 -420 c19 -7 55 -27 82 -45 l47 -34 48 35 c55 39 126 61 164 52
65 -17 127 -104 128 -179 0 -91 -67 -206 -186 -317 -142 -133 -166 -133 -308
0 -181 169 -233 336 -138 443 46 52 99 66 163 45z"/>
</g>
</svg>
